<!DOCTYPE svg PUBLIC "-//W3C//DTD SVG 1.1//EN" "http://www.w3.org/Graphics/SVG/1.1/DTD/svg11.dtd">
<!-- Uploaded to: SVG Repo, www.svgrepo.com, Transformed by: SVG Repo Mixer Tools -->
<svg height="256px" width="256px" version="1.1" id="Layer_1" xmlns="http://www.w3.org/2000/svg" xmlns:xlink="http://www.w3.org/1999/xlink" viewBox="0 0 508.00 508.00" xml:space="preserve" fill="#000000" stroke="#000000" stroke-width="0.00508" transform="matrix(1, 0, 0, 1, 0, 0)rotate(-45)">
<g id="SVGRepo_bgCarrier" stroke-width="0"/>
<g id="SVGRepo_tracerCarrier" stroke-linecap="round" stroke-linejoin="round"/>
<g id="SVGRepo_iconCarrier"> <path style="fill:#84DBFF;" d="M0,254C0,113.7,113.7,0,254,0s254,113.7,254,254S394.3,508,254,508S0,394.3,0,254z"/> <path style="fill:#FFD05B;" d="M254,338.1c-21.1,0-38.3,17.1-38.3,38.3c0,30,25.5,40.9,38.3,66.6c12.8-25.6,38.3-36.6,38.3-66.6 C292.3,355.2,275.1,338.1,254,338.1z"/> <path style="fill:#FF7058;" d="M254,338.1c-15.4,0-27.8,12.5-27.8,27.8c0,21.8,18.5,29.8,27.8,48.4c9.3-18.6,27.8-26.6,27.8-48.4 C281.8,350.5,269.4,338.1,254,338.1z"/> <path style="fill:#FFFFFF;" d="M254,338.1c-9.7,0-17.6,7.9-17.6,17.6c0,13.8,11.7,18.8,17.6,30.6c5.9-11.8,17.6-16.8,17.6-30.6 C271.6,346,263.7,338.1,254,338.1z"/> <path style="fill:#324A5E;" d="M361.5,364.9c0,3-0.1,6-0.4,8.9c-20.6-33.5-60.8-56.3-107.1-56.3s-86.5,22.9-107.1,56.5 c-0.2-3-0.4-6-0.4-9.1c0-59.4,48.2-107.5,107.5-107.5C313.4,257.4,361.5,305.4,361.5,364.9z"/> <path style="fill:#FFFFFF;" d="M302.9,351.8c16.3-29.8,26.7-74.3,26.7-124c0-89.9-75.7-162.7-75.7-162.7s-75.7,72.8-75.7,162.7 c0,49.7,10.4,94.1,26.7,124H302.9z"/> <polygon style="fill:#324A5E;" points="254,262.1 246.6,284.3 254,373.9 261.4,284.3 "/> <circle style="fill:#54C0EB;" cx="254" cy="179.7" r="32.3"/> </g>
</svg>